<svg width="12" height="12" viewBox="0 0 12 12" fill="none" xmlns="http://www.w3.org/2000/svg">
<path d="M6 0C4.37 0 4.1665 0.0075 3.5265 0.036C2.8875 0.066 2.4525 0.1665 2.07 0.315C1.6755 0.468 1.3405 0.6735 1.007 1.007C0.6735 1.3405 0.4675 1.675 0.315 2.07C0.1665 2.4525 0.0655 2.8875 0.036 3.5265C0.006 4.1665 0 4.37 0 6C0 7.63 0.0075 7.8335 0.036 8.4735C0.066 9.112 0.1665 9.5475 0.315 9.93C0.465646 10.3304 0.701798 10.6932 1.007 10.993C1.30664 11.2984 1.66945 11.5346 2.07 11.685C2.453 11.833 2.888 11.9345 3.5265 11.964C4.1665 11.994 4.37 12 6 12C7.63 12 7.8335 11.9925 8.4735 11.964C9.112 11.934 9.5475 11.833 9.93 11.685C10.3303 11.5342 10.6931 11.298 10.993 10.993C11.2985 10.6934 11.5347 10.3306 11.685 9.93C11.833 9.5475 11.9345 9.112 11.964 8.4735C11.994 7.8335 12 7.63 12 6C12 4.37 11.9925 4.1665 11.964 3.5265C11.934 2.888 11.833 2.452 11.685 2.07C11.5343 1.66961 11.2981 1.30686 10.993 1.007C10.6936 0.701321 10.3307 0.465095 9.93 0.315C9.5475 0.1665 9.112 0.0655 8.4735 0.036C7.8335 0.006 7.63 0 6 0ZM6 1.08C7.6015 1.08 7.7925 1.088 8.425 1.1155C9.01 1.143 9.3275 1.24 9.5385 1.323C9.8195 1.4315 10.0185 1.5615 10.2295 1.771C10.439 1.981 10.569 2.1805 10.6775 2.4615C10.7595 2.6725 10.8575 2.99 10.884 3.575C10.9125 4.208 10.919 4.398 10.919 6C10.919 7.602 10.9115 7.7925 10.882 8.425C10.8515 9.01 10.754 9.3275 10.6715 9.5385C10.5739 9.79888 10.4205 10.0347 10.222 10.2295C10.0281 10.4281 9.79237 10.5812 9.532 10.6775C9.322 10.7595 8.9995 10.8575 8.4145 10.884C7.7775 10.9125 7.59 10.919 5.985 10.919C4.3795 10.919 4.192 10.9115 3.5555 10.882C2.97 10.8515 2.6475 10.754 2.4375 10.6715C2.17695 10.5751 1.94134 10.4215 1.748 10.222C1.54729 10.0294 1.39336 9.79334 1.298 9.532C1.2155 9.322 1.1185 8.9995 1.088 8.4145C1.0655 7.7845 1.0575 7.59 1.0575 5.9925C1.0575 4.3945 1.0655 4.1995 1.088 3.562C1.1185 2.977 1.2155 2.655 1.298 2.445C1.403 2.16 1.5375 1.965 1.748 1.7545C1.9575 1.545 2.153 1.41 2.4375 1.3055C2.6475 1.2225 2.963 1.125 3.548 1.095C4.1855 1.0725 4.373 1.065 5.9775 1.065L6 1.08ZM6 2.919C5.5954 2.919 5.19476 2.99869 4.82095 3.15353C4.44715 3.30836 4.1075 3.53531 3.8214 3.8214C3.53531 4.1075 3.30836 4.44715 3.15353 4.82095C2.99869 5.19476 2.919 5.5954 2.919 6C2.919 6.4046 2.99869 6.80524 3.15353 7.17905C3.30836 7.55285 3.53531 7.8925 3.8214 8.1786C4.1075 8.46469 4.44715 8.69164 4.82095 8.84647C5.19476 9.00131 5.5954 9.081 6 9.081C6.81713 9.081 7.6008 8.7564 8.1786 8.1786C8.7564 7.6008 9.081 6.81713 9.081 6C9.081 5.18287 8.7564 4.3992 8.1786 3.8214C7.6008 3.2436 6.81713 2.919 6 2.919ZM6 8C4.895 8 4 7.105 4 6C4 4.895 4.895 4 6 4C7.105 4 8 4.895 8 6C8 7.105 7.105 8 6 8ZM9.923 2.7975C9.91606 2.98381 9.83716 3.16018 9.70289 3.28953C9.56863 3.41889 9.38944 3.49116 9.203 3.49116C9.01656 3.49116 8.83737 3.41889 8.70311 3.28953C8.56884 3.16018 8.48994 2.98381 8.483 2.7975C8.483 2.60654 8.55886 2.42341 8.69388 2.28838C8.82891 2.15336 9.01204 2.0775 9.203 2.0775C9.39396 2.0775 9.57709 2.15336 9.71212 2.28838C9.84714 2.42341 9.923 2.60654 9.923 2.7975Z" fill="white"/>
</svg>
